<?xml version="1.0" encoding="UTF-8" standalone="no"?>
<!-- Created with Inkscape (http://www.inkscape.org/) -->

<svg
   width="143.653mm"
   height="66.271004mm"
   viewBox="0 0 143.653 66.271009"
   version="1.1"
   id="svg5"
   inkscape:export-filename="mxl-on-blue-rectangular.png"
   inkscape:export-xdpi="300"
   inkscape:export-ydpi="300"
   xml:space="preserve"
   inkscape:version="1.4.2 (ebf0e940, 2025-05-08)"
   sodipodi:docname="mxl-on-blue-rectangular-supporter-pin-path.svg"
   xmlns:inkscape="http://www.inkscape.org/namespaces/inkscape"
   xmlns:sodipodi="http://sodipodi.sourceforge.net/DTD/sodipodi-0.dtd"
   xmlns="http://www.w3.org/2000/svg"
   xmlns:svg="http://www.w3.org/2000/svg"><sodipodi:namedview
     id="namedview7"
     pagecolor="#ffffff"
     bordercolor="#000000"
     borderopacity="0.25"
     inkscape:showpageshadow="2"
     inkscape:pageopacity="0.0"
     inkscape:pagecheckerboard="0"
     inkscape:deskcolor="#d1d1d1"
     inkscape:document-units="mm"
     showgrid="false"
     inkscape:zoom="1.5260754"
     inkscape:cx="264.73135"
     inkscape:cy="138.91843"
     inkscape:window-width="1376"
     inkscape:window-height="959"
     inkscape:window-x="99"
     inkscape:window-y="25"
     inkscape:window-maximized="0"
     inkscape:current-layer="layer1" /><defs
     id="defs2"><rect
       x="25.650303"
       y="200.26967"
       width="392.15367"
       height="46.367855"
       id="rect2" /><rect
       x="52.287156"
       y="215.5612"
       width="469.5627"
       height="49.820781"
       id="rect1" /></defs><g
     inkscape:groupmode="layer"
     id="layer2"
     inkscape:label="bg"
     style="display:inline"
     transform="matrix(0.61643941,0,0,1,4.1386047,-120.68901)"
     sodipodi:insensitive="true"><rect
       style="fill:#1b4098;fill-opacity:1;stroke:none;stroke-width:0.840334"
       id="rect3467"
       width="233.0367"
       height="66.271004"
       x="-6.7137251"
       y="120.68901"
       inkscape:label="bg" /></g><g
     inkscape:groupmode="layer"
     id="layer3"
     inkscape:label="2" /><g
     inkscape:label="1"
     inkscape:groupmode="layer"
     id="layer1"
     transform="translate(21.246118,-169.37755)"
     style="display:inline"><g
       id="g7326"
       transform="translate(0,-6.3500003)"><g
         id="g860"
         transform="translate(3.0120144)"><g
           aria-label="M"
           id="text113-7"
           style="fill:#ffffff;stroke-width:0.264582"
           transform="translate(-3.704032)"><path
             d="m 34.799623,220.64854 -7.823154,-25.26436 v 0 c 0.03387,0.67733 -0.06773,1.65945 0,2.94638 0.101599,1.25306 -0.06773,2.60772 0,4.06397 0.06773,1.45626 0,2.79399 0,4.01318 v 14.24083 h -7.721555 v -36.27098 h 11.683932 l 8.077152,24.17641 H 35.51503 l 8.331151,-24.17641 h 11.633132 v 36.27098 H 47.45296 v -14.44403 c 0,-1.15146 -0.03387,-2.42145 0,-3.80998 0.06773,-1.42239 -0.03387,-2.76011 0,-4.01317 0.06773,-1.28693 -0.03387,-2.26906 0,-2.94639 v 0 l -8.229552,25.21357 z"
             id="path10652"
             sodipodi:nodetypes="ccccssccccccccccscccccc" /></g><g
           aria-label="X"
           id="text113-0-35"
           style="fill:#ffffff;stroke-width:0.264582"><path
             d="m 84.156766,220.64854 h -9.956741 l -7.772355,-12.59832 -7.772354,12.59832 h -9.550344 l 12.03953,-18.64349 -11.328334,-17.62749 h 9.601144 l 7.264357,12.19193 7.010359,-12.19193 h 9.601143 l -11.379133,18.23709 z"
             id="path10672" /></g><g
           aria-label="L"
           id="text113-0-6-2"
           style="fill:#ffffff;stroke-width:0.264582"><path
             d="m 81.382722,220.64854 v -36.27098 h 8.635949 v 29.20983 h 14.376319 v 7.06115 z"
             id="path10669" /></g></g><rect
         style="fill:#ffffff;stroke-width:0.235289"
         id="rect526-1"
         width="23.011999"
         height="7.7199998"
         x="-6.2462406"
         y="184.37756" /><rect
         style="fill:#ffffff;stroke-width:0.235289"
         id="rect526-7-2"
         width="23.011999"
         height="7.7199998"
         x="-6.2462406"
         y="193.89456" /><rect
         style="display:inline;fill:#ffffff;stroke-width:0.259539"
         id="rect526-7-2-2"
         width="28"
         height="7.7199998"
         x="-6.2462406"
         y="203.41154" /><rect
         style="fill:#ffffff;stroke-width:0.235289"
         id="rect526-7-0-3-0"
         width="23.011999"
         height="7.7199998"
         x="-6.2462406"
         y="212.92854" /></g><text
       xml:space="preserve"
       transform="matrix(0.31740414,0,0,0.27581832,-24.103458,164.02026)"
       id="text1"
       style="font-size:30.678px;text-align:start;writing-mode:lr-tb;direction:ltr;white-space:pre;shape-inside:url(#rect1);shape-padding:0.904462;display:inline;fill:#000000" /><path
       style="font-weight:bold;font-size:37.3333px;line-height:0;font-family:Gotham;-inkscape-font-specification:'Gotham weight=325';letter-spacing:3.96px;white-space:pre;fill:#ffffff"
       d="m 38.231713,211.91752 c 6.346662,0 10.565325,-3.17333 10.565325,-8.51199 v -0.0747 c 0,-4.89066 -3.733331,-6.83199 -9.706659,-8.13866 -3.658663,-0.784 -4.554663,-1.38133 -4.554663,-2.53866 v -0.0747 c 0,-1.008 0.858666,-1.68 2.613332,-1.68 2.351997,0 4.927995,0.82134 7.317327,2.576 l 3.62133,-5.11466 c -2.837331,-2.27733 -6.271995,-3.472 -10.751991,-3.472 -6.271995,0 -10.117325,3.472 -10.117325,8.36266 v 0.0747 c 0,5.37599 4.330663,6.90666 9.855992,8.17599 3.583997,0.896 4.442663,1.41867 4.442663,2.53866 v 0.0747 c 0,1.15733 -1.045333,1.792 -3.023998,1.792 -2.986664,0 -5.823995,-1.04533 -8.474659,-3.136 l -4.031997,4.816 c 3.285331,2.87466 7.578661,4.33066 12.245323,4.33066 z m 29.794659,0.0373 c 7.429327,0 12.245323,-3.73333 12.245323,-12.13332 v -14.48532 h -7.317327 v 14.70932 c 0,3.696 -1.866665,5.376 -4.853329,5.376 -2.949331,0 -4.815996,-1.792 -4.815996,-5.56267 v -14.52265 h -7.317327 v 14.67199 c 0,8.21332 4.666662,11.94665 12.058656,11.94665 z m 20.498631,-0.48533 h 7.242661 v -7.46666 h 3.62133 c 6.458666,0 11.199986,-3.248 11.199986,-9.44532 v -0.0747 c 0,-5.78666 -4.25599,-9.14666 -10.826653,-9.14666 H 88.525003 Z m 7.242661,-13.14132 v -6.90666 h 3.434664 c 2.576002,0 4.181332,1.15733 4.181332,3.39733 v 0.0747 c 0,2.09066 -1.60533,3.43466 -4.143999,3.43466 z m 21.842666,13.14132 h 7.24266 v -7.46666 h 3.62133 c 6.45866,0 11.19999,-3.248 11.19999,-9.44532 v -0.0747 c 0,-5.78666 -4.256,-9.14666 -10.82666,-9.14666 h -11.23732 z m 7.24266,-13.14132 v -6.90666 h 3.43466 c 2.576,0 4.18133,1.15733 4.18133,3.39733 v 0.0747 c 0,2.09066 -1.60533,3.43466 -4.144,3.43466 z m 35.02132,13.66399 c 8.06399,0 14.11199,-6.08533 14.11199,-13.58932 v -0.0747 c 0,-7.46666 -5.97333,-13.51466 -14.03732,-13.51466 -8.064,0 -14.11199,6.08533 -14.11199,13.58933 v 0.0747 c 0,7.46666 5.97333,13.51466 14.03732,13.51466 z m 0.0747,-6.53333 c -3.99467,0 -6.72,-3.32266 -6.72,-7.05599 v -0.0747 c 0,-3.77066 2.65067,-6.98133 6.64533,-6.98133 3.99466,0 6.68266,3.248 6.68266,7.056 v 0.0747 c 0,3.77067 -2.65066,6.98133 -6.60799,6.98133 z m 21.73063,6.01066 h 7.24266 v -7.91466 h 3.21066 l 5.264,7.91466 h 8.32533 l -6.23467,-9.10932 c 3.28533,-1.38134 5.376,-4.032 5.376,-8.064 v -0.0747 c 0,-2.50133 -0.784,-4.55467 -2.31467,-6.08533 -1.75466,-1.75467 -4.47999,-2.8 -8.51199,-2.8 h -12.35732 z m 7.24266,-13.58932 v -6.30933 h 4.77866 c 2.38933,0 3.92,1.04533 3.92,3.136 v 0.0747 c 0,1.90399 -1.456,3.09866 -3.88266,3.09866 z m 29.94396,13.58932 h 7.24266 v -19.78665 h 7.84 v -6.34666 h -22.88532 v 6.34666 h 7.80266 z m 22.21598,0 h 21.20532 v -6.15999 h -14.03732 v -4.144 h 12.54399 v -5.71199 h -12.54399 v -3.99467 h 13.85065 v -6.12266 h -21.01865 z m 28.89862,0 h 7.24266 v -7.91466 h 3.21067 l 5.26399,7.91466 h 8.32533 l -6.23466,-9.10932 c 3.28533,-1.38134 5.37599,-4.032 5.37599,-8.064 v -0.0747 c 0,-2.50133 -0.784,-4.55467 -2.31466,-6.08533 -1.75467,-1.75467 -4.48,-2.8 -8.51199,-2.8 h -12.35733 z m 7.24266,-13.58932 v -6.30933 h 4.77867 c 2.38933,0 3.91999,1.04533 3.91999,3.136 v 0.0747 c 0,1.90399 -1.456,3.09866 -3.88266,3.09866 z"
       id="text2"
       transform="matrix(0.42970201,0,0,0.365983,-18.238471,149.64515)"
       aria-label="SUPPORTER" /></g></svg>
