<?xml version="1.0" encoding="UTF-8" standalone="no"?>
<!-- Created with Inkscape (http://www.inkscape.org/) -->

<svg
   width="143.653mm"
   height="143.653mm"
   viewBox="0 0 143.653 143.65301"
   version="1.1"
   id="svg5"
   inkscape:export-filename="mxl-on-white-square.png"
   inkscape:export-xdpi="300"
   inkscape:export-ydpi="300"
   xml:space="preserve"
   inkscape:version="1.2.2 (b0a8486541, 2022-12-01)"
   sodipodi:docname="mxl-on-white-square.svg"
   xmlns:inkscape="http://www.inkscape.org/namespaces/inkscape"
   xmlns:sodipodi="http://sodipodi.sourceforge.net/DTD/sodipodi-0.dtd"
   xmlns="http://www.w3.org/2000/svg"
   xmlns:svg="http://www.w3.org/2000/svg"><sodipodi:namedview
     id="namedview7"
     pagecolor="#ffffff"
     bordercolor="#000000"
     borderopacity="0.25"
     inkscape:showpageshadow="2"
     inkscape:pageopacity="0.0"
     inkscape:pagecheckerboard="0"
     inkscape:deskcolor="#d1d1d1"
     inkscape:document-units="mm"
     showgrid="false"
     inkscape:zoom="1.3979902"
     inkscape:cx="136.62471"
     inkscape:cy="288.62863"
     inkscape:window-width="2494"
     inkscape:window-height="1009"
     inkscape:window-x="66"
     inkscape:window-y="663"
     inkscape:window-maximized="1"
     inkscape:current-layer="layer1" /><defs
     id="defs2" /><g
     inkscape:groupmode="layer"
     id="layer2"
     inkscape:label="bg"
     style="display:inline"
     transform="matrix(0.61643941,0,0,1,4.1386047,-120.68901)"
     sodipodi:insensitive="true"><rect
       style="fill:#ffffff;fill-opacity:1;stroke:none;stroke-width:1.23722"
       id="rect3467"
       width="233.0367"
       height="143.653"
       x="-6.7137251"
       y="120.68901"
       inkscape:label="bg" /></g><g
     inkscape:groupmode="layer"
     id="layer3"
     inkscape:label="2" /><g
     inkscape:label="1"
     inkscape:groupmode="layer"
     id="layer1"
     transform="translate(21.246118,-169.37755)"
     style="display:inline"><g
       id="g8462"><g
         id="g860"
         transform="translate(3.0120144,38.690999)"
         style="fill:#1b4098;fill-opacity:1"><g
           aria-label="M"
           id="text113-7"
           style="fill:#1b4098;fill-opacity:1;stroke-width:0.264582"
           transform="translate(-3.704032)"><path
             d="m 34.799623,220.64854 -7.823154,-25.26436 v 0 c 0.03387,0.67733 -0.06773,1.65945 0,2.94638 0.101599,1.25306 -0.06773,2.60772 0,4.06397 0.06773,1.45626 0,2.79399 0,4.01318 v 14.24083 h -7.721555 v -36.27098 h 11.683932 l 8.077152,24.17641 H 35.51503 l 8.331151,-24.17641 h 11.633132 v 36.27098 H 47.45296 v -14.44403 c 0,-1.15146 -0.03387,-2.42145 0,-3.80998 0.06773,-1.42239 -0.03387,-2.76011 0,-4.01317 0.06773,-1.28693 -0.03387,-2.26906 0,-2.94639 v 0 l -8.229552,25.21357 z"
             id="path10652"
             sodipodi:nodetypes="ccccssccccccccccscccccc"
             style="fill:#1b4098;fill-opacity:1" /></g><g
           aria-label="X"
           id="text113-0-35"
           style="fill:#1b4098;fill-opacity:1;stroke-width:0.264582"><path
             d="m 84.156766,220.64854 h -9.956741 l -7.772355,-12.59832 -7.772354,12.59832 h -9.550344 l 12.03953,-18.64349 -11.328334,-17.62749 h 9.601144 l 7.264357,12.19193 7.010359,-12.19193 h 9.601143 l -11.379133,18.23709 z"
             id="path10672"
             style="fill:#1b4098;fill-opacity:1" /></g><g
           aria-label="L"
           id="text113-0-6-2"
           style="fill:#1b4098;fill-opacity:1;stroke-width:0.264582"><path
             d="m 81.382722,220.64854 v -36.27098 h 8.635949 v 29.20983 h 14.376319 v 7.06115 z"
             id="path10669"
             style="fill:#1b4098;fill-opacity:1" /></g></g><rect
         style="fill:#1b4098;fill-opacity:1;stroke-width:0.235289"
         id="rect526-1"
         width="23.011999"
         height="7.7199998"
         x="-6.2462406"
         y="223.06856" /><rect
         style="fill:#1b4098;fill-opacity:1;stroke-width:0.235289"
         id="rect526-7-2"
         width="23.011999"
         height="7.7199998"
         x="-6.2462406"
         y="232.58556" /><rect
         style="display:inline;fill:#1b4098;fill-opacity:1;stroke-width:0.259539"
         id="rect526-7-2-2"
         width="28"
         height="7.7199998"
         x="-6.2462406"
         y="242.10254" /><rect
         style="fill:#1b4098;fill-opacity:1;stroke-width:0.235289"
         id="rect526-7-0-3-0"
         width="23.011999"
         height="7.7199998"
         x="-6.2462406"
         y="251.61954" /></g></g></svg>
